{"title":"Sodoma Reykjavik (Remote Control) - Oskar Jonasson - 1992 - Frea","uid":7110473,"size":733168385,"categoryP":"video","categoryS":"movies","magnet":"?xt=urn:btih:0a9a33ffa03aa537098970d73ebaadc152b03fbc&amp;dn=Sodoma+Reykjavik+%28Remote+Control%29+-+Oskar+Jonasson+-+1992+-+Frea&amp;tr=udp%3A%2F%2Ftracker.openbittorrent.com%3A80&amp;tr=udp%3A%2F%2Fopen.demonii.com%3A1337&amp;tr=udp%3A%2F%2Ftracker.coppersurfer.tk%3A6969&amp;tr=udp%3A%2F%2Fexodus.desync.com%3A6969","seeders":0,"leechers":1,"uploader":"HurnBollywoodHurn","files":2,"time":1332016506,"description":"I'm aware that there already is some torrents of this one out there, but this one fits on one CD and has english subtitles in an .srt file\n\n___________________________________________________\n\nSince his mother wants to watch TV, Axel, a young auto-mechanic, must recover her remote control, accidentally taken by his punk sister Maja. During his quest, he becomes involved in the conflict between Moli, the liquor smuggler, and Aggi, a night club owner who wants to be Iceland's first mafia boss. (From IMDB)\n\nFormat                           : AVI\nFormat/Info                      : Audio Video Interleave\nFile size                        : 699 MiB\nDuration                         : 1h 18mn\nOveral bit rate                  : 1247 Kbps\nWriting application              : Nandub v1.0rc2\nWriting library                  : Nandub build 1853/release\n\nVideo\nFormat                           : MPEG-4 Visual\nCodec ID                         : DIV3\nCodec ID/Hint                    : DivX 3 Low\nDuration                         : 1h 18mn\nBit rate                         : 1062 Kbps\nWidth                            : 544 pixels\nHeight                           : 336 pixels\nDisplay aspect ratio             : 1.619\nFrame rate                       : 25.000 fps\nResolution                       : 24 bits\nBits/(Pixel*Frame)               : 0.232\nStream size                      : 595 MiB\n\nAudio\nFormat                           : MPEG Audio\nFormat version                   : Version 1\nFormat profile                   : Layer 3\nCodec ID                         : 55\nCodec ID/Hint                    : MP3\nDuration                         : 1h 18mn\nBit rate mode                    : Variable\nBit rate                         : 172 Kbps\nChannel(s)                       : 2 channels\nSampling rate                    : 48.0 KHz\nResolution                       : 16 bits\nStream size                      : 96.7 MiB\n\n\nSpoken language : Icelandic\nSubtitles       : English\n\nScreeners : &lt;a href=&quot;\nhttp://imageshack.us/photo/my-images/13/bscap0002rc.jpg/&quot; rel=&quot;nofollow&quot; target=&quot;_NEW&quot;&gt;\nhttp://imageshack.us/photo/my-images/13/bscap0002rc.jpg/&lt;/a&gt; &lt;a href=&quot;\nhttp://imageshack.us/photo/my-images/823/bscap0008zu.jpg/&quot; rel=&quot;nofollow&quot; target=&quot;_NEW&quot;&gt;\nhttp://imageshack.us/photo/my-images/823/bscap0008zu.jpg/&lt;/a&gt; &lt;a href=&quot;\nhttp://imageshack.us/photo/my-images/859/bscap0009o.jpg/&quot; rel=&quot;nofollow&quot; target=&quot;_NEW&quot;&gt;\nhttp://imageshack.us/photo/my-images/859/bscap0009o.jpg/&lt;/a&gt; &lt;a href=&quot;\nhttp://imageshack.us/photo/my-images/827/bscap0010c.jpg/&quot; rel=&quot;nofollow&quot; target=&quot;_NEW&quot;&gt;\nhttp://imageshack.us/photo/my-images/827/bscap0010c.jpg/&lt;/a&gt; &lt;a href=&quot;\nhttp://imageshack.us/photo/my-images/856/bscap0011t.jpg/&quot; rel=&quot;nofollow&quot; target=&quot;_NEW&quot;&gt;\nhttp://imageshack.us/photo/my-images/856/bscap0011t.jpg/&lt;/a&gt;\n\n***************************************************\n\n    Freakyflicks is a free and open community dedicated to preserving and sharing cinematic art in the digital era. Our goal is to disseminate such works of art to the widest audience possible through the channels provided by P2P technology.\n\n        The Freakyflicks collection is limited to those films that have played an exceptional role in the history of cinema and its progression in becoming a great art. Films that are usually described as classic, cult, arthouse and avant-garde.\n\n        If you have films that fit this description feel free to share them and participate in our community. All you need do is include this tag in your upload and join us at the forum to announce your release.\n\n       &lt;a href=&quot; https://board.freakyflicks.org/index.php&quot; rel=&quot;nofollow&quot; target=&quot;_NEW&quot;&gt; https://board.freakyflicks.org/index.php&lt;/a&gt;\n\n        'If we all seed just 1:1, give at least what we take, this torrent will NEVER DIE","torrent":{"xt":"urn:btih:0a9a33ffa03aa537098970d73ebaadc152b03fbc","amp;dn":"Sodoma+Reykjavik+%28Remote+Control%29+-+Oskar+Jonasson+-+1992+-+Frea","amp;tr":["udp%3A%2F%2Ftracker.openbittorrent.com%3A80","udp%3A%2F%2Fopen.demonii.com%3A1337","udp%3A%2F%2Ftracker.coppersurfer.tk%3A6969","udp%3A%2F%2Fexodus.desync.com%3A6969"],"infoHash":"0a9a33ffa03aa537098970d73ebaadc152b03fbc","infoHashBuffer":{"type":"Buffer","data":[10,154,51,255,160,58,165,55,9,137,112,215,62,186,173,193,82,176,63,188]},"announce":[],"urlList":[]}}